<?xml version="1.0" encoding="UTF-8"?>
<svg width="840px" height="840px" viewBox="0 0 840 840" version="1.1" xmlns="http://www.w3.org/2000/svg" xmlns:xlink="http://www.w3.org/1999/xlink">
    <!-- Generator: Sketch 49.3 (51167) - http://www.bohemiancoding.com/sketch -->
    <title>Untitled</title>
    <desc>Created with Sketch.</desc>
    <defs></defs>
    <g id="Page-1" stroke="none" stroke-width="1" fill="none" fill-rule="evenodd">
        <g id="Group">
            <polygon id="Combined-Shape" fill="#FF0076" points="382.536383 590.27027 323.076923 840 840 500.769231 457.463617 249.72973 516.923077 0 0 339.230769"></polygon>
            <path d="M386.798893,176.98155 C386.798893,175.708487 385.738007,174.435424 384.04059,174.435424 L380.221402,174.435424 C378.311808,174.435424 377.250923,175.708487 377.250923,176.98155 L377.250923,277.97786 C377.250923,279.250923 378.311808,280.523985 380.221402,280.523985 L384.677122,280.523985 C386.374539,280.523985 387.435424,279.250923 387.435424,277.97786 L387.435424,197.987085 C387.435424,189.075646 394.861624,181.649446 403.348708,181.649446 C409.714022,181.649446 415.01845,187.378229 415.01845,195.865314 L415.01845,277.97786 C415.01845,279.250923 416.079336,280.523985 417.98893,280.523985 L422.444649,280.523985 C424.142066,280.523985 425.202952,279.250923 425.202952,277.97786 L425.202952,198.623616 C425.202952,188.439114 433.47786,181.649446 441.328413,181.649446 C447.057196,181.649446 452.361624,185.892989 452.361624,195.865314 L452.361624,277.97786 C452.361624,279.250923 453.422509,280.523985 455.332103,280.523985 L459.787823,280.523985 C461.48524,280.523985 462.546125,279.250923 462.546125,277.97786 L462.546125,194.380074 C462.546125,180.588561 454.483395,172.738007 442.813653,172.738007 C429.234317,172.738007 422.232472,183.346863 422.232472,183.346863 C422.232472,183.346863 417.98893,172.738007 405.046125,172.738007 C393.164207,172.738007 386.798893,182.073801 386.798893,182.073801 L386.798893,176.98155 Z M583.062731,206.686347 L583.062731,277.97786 C583.062731,279.250923 582.001845,280.523985 580.092251,280.523985 L575.424354,280.523985 C573.726937,280.523985 572.666052,279.250923 572.666052,277.97786 L572.666052,269.490775 C572.666052,269.490775 563.542435,282.645756 543.597786,282.645756 C523.865314,282.645756 509.225092,269.490775 509.225092,251.031365 C509.225092,231.51107 524.501845,219.841328 544.446494,218.143911 L572.666052,215.809963 L572.666052,206.47417 C572.666052,191.833948 563.96679,181.437269 548.902214,181.437269 C536.595941,181.437269 528.53321,190.136531 526.623616,197.138376 C526.199262,198.411439 525.562731,199.684502 523.653137,199.684502 L518.560886,199.684502 C516.863469,199.684502 515.378229,198.411439 515.802583,197.138376 C519.409594,183.559041 530.230627,172.313653 548.902214,172.313653 C571.392989,172.313653 583.062731,186.953875 583.062731,206.686347 Z M544.234317,273.734317 C559.298893,273.734317 572.666052,263.125461 572.666052,251.243542 L572.666052,225.145756 L545.719557,227.055351 C531.079336,228.116236 519.621771,236.391144 519.621771,250.819188 C519.621771,263.761993 529.806273,273.734317 544.234317,273.734317 Z M706.97417,177.618081 C707.398524,177.193727 707.822878,176.557196 707.822878,175.920664 C707.822878,175.071956 706.97417,174.435424 705.276753,174.435424 L698.487085,174.435424 C696.365314,174.435424 694.880074,175.920664 694.031365,176.98155 L653.293358,223.023985 L653.293358,134.546125 C653.293358,133.273063 652.232472,132 650.535055,132 L645.867159,132 C643.957565,132 642.896679,133.273063 642.896679,134.546125 L642.896679,277.97786 C642.896679,279.250923 643.957565,280.523985 645.867159,280.523985 L650.535055,280.523985 C652.232472,280.523985 653.293358,279.250923 653.293358,277.97786 L653.293358,225.357934 L697.426199,277.97786 C698.274908,279.038745 699.760148,280.523985 701.881919,280.523985 L708.671587,280.523985 C710.369004,280.523985 711.217712,279.887454 711.217712,279.038745 C711.217712,278.402214 710.793358,277.765683 710.369004,277.341328 L665.599631,223.872694 L706.97417,177.618081 Z M775.083026,206.47417 L775.083026,221.326568 L828.763838,221.326568 L828.763838,206.47417 C828.763838,193.107011 816.881919,181.437269 801.817343,181.437269 C786.752768,181.437269 775.083026,193.107011 775.083026,206.47417 Z M802.02952,282.645756 C779.326568,282.645756 764.898524,267.793358 764.898524,249.758303 L764.898524,205.201107 C764.898524,187.166052 779.326568,172.313653 802.02952,172.313653 C824.308118,172.313653 838.948339,187.166052 838.948339,205.201107 L838.948339,226.843173 C838.948339,228.752768 837.250923,230.450185 835.341328,230.450185 L775.083026,230.450185 L775.083026,248.48524 C775.083026,261.852399 786.752768,273.52214 801.817343,273.52214 C816.245387,273.52214 827.278598,262.913284 828.551661,252.092251 C828.763838,250.819188 829.188192,249.546125 831.097786,249.546125 L835.97786,249.546125 C837.675277,249.546125 838.948339,250.819188 838.736162,252.092251 C836.826568,268.429889 823.247232,282.645756 802.02952,282.645756 Z M193.293358,458.964945 L193.293358,420.348708 C193.293358,402.52583 181.623616,393.614391 167.832103,393.614391 C151.918819,393.614391 139.612546,404.859779 139.612546,420.348708 L139.612546,458.964945 C139.612546,474.453875 151.918819,485.699262 167.832103,485.699262 C181.623616,485.699262 193.293358,476.363469 193.293358,458.964945 Z M139.612546,482.516605 L139.612546,528.346863 C139.612546,529.619926 138.551661,530.892989 136.854244,530.892989 L132.186347,530.892989 C130.276753,530.892989 129.215867,529.619926 129.215867,528.346863 L129.215867,389.158672 C129.215867,387.885609 130.276753,386.612546 132.186347,386.612546 L136.854244,386.612546 C138.551661,386.612546 139.612546,387.885609 139.612546,389.158672 L139.612546,397.433579 C139.612546,397.433579 149.160517,384.490775 167.832103,384.490775 C189.261993,384.490775 203.690037,399.343173 203.690037,418.226937 L203.690037,461.086716 C203.690037,479.97048 189.261993,494.822878 167.832103,494.822878 C149.160517,494.822878 139.612546,482.516605 139.612546,482.516605 Z M265.857934,418.651292 L265.857934,433.50369 L319.538745,433.50369 L319.538745,418.651292 C319.538745,405.284133 307.656827,393.614391 292.592251,393.614391 C277.527675,393.614391 265.857934,405.284133 265.857934,418.651292 Z M292.804428,494.822878 C270.101476,494.822878 255.673432,479.97048 255.673432,461.935424 L255.673432,417.378229 C255.673432,399.343173 270.101476,384.490775 292.804428,384.490775 C315.083026,384.490775 329.723247,399.343173 329.723247,417.378229 L329.723247,439.020295 C329.723247,440.929889 328.02583,442.627306 326.116236,442.627306 L265.857934,442.627306 L265.857934,460.662362 C265.857934,474.02952 277.527675,485.699262 292.592251,485.699262 C307.020295,485.699262 318.053506,475.090406 319.326568,464.269373 C319.538745,462.99631 319.9631,461.723247 321.872694,461.723247 L326.752768,461.723247 C328.450185,461.723247 329.723247,462.99631 329.51107,464.269373 C327.601476,480.607011 314.02214,494.822878 292.804428,494.822878 Z M456.817343,417.378229 L456.817343,461.935424 C456.817343,479.97048 442.177122,494.822878 419.898524,494.822878 C397.195572,494.822878 382.767528,479.97048 382.767528,461.935424 L382.767528,417.378229 C382.767528,399.343173 397.195572,384.490775 419.898524,384.490775 C442.177122,384.490775 456.817343,399.343173 456.817343,417.378229 Z M446.632841,460.662362 L446.632841,418.651292 C446.632841,405.284133 434.750923,393.614391 419.686347,393.614391 C404.621771,393.614391 392.95203,405.284133 392.95203,418.651292 L392.95203,460.662362 C392.95203,474.02952 404.621771,485.699262 419.898524,485.699262 C434.750923,485.699262 446.632841,474.02952 446.632841,460.662362 Z M575.212177,458.964945 L575.212177,420.348708 C575.212177,402.52583 563.542435,393.614391 549.750923,393.614391 C533.837638,393.614391 521.531365,404.859779 521.531365,420.348708 L521.531365,458.964945 C521.531365,474.453875 533.837638,485.699262 549.750923,485.699262 C563.542435,485.699262 575.212177,476.363469 575.212177,458.964945 Z M521.531365,482.516605 L521.531365,528.346863 C521.531365,529.619926 520.47048,530.892989 518.773063,530.892989 L514.105166,530.892989 C512.195572,530.892989 511.134686,529.619926 511.134686,528.346863 L511.134686,389.158672 C511.134686,387.885609 512.195572,386.612546 514.105166,386.612546 L518.773063,386.612546 C520.47048,386.612546 521.531365,387.885609 521.531365,389.158672 L521.531365,397.433579 C521.531365,397.433579 531.079336,384.490775 549.750923,384.490775 C571.180812,384.490775 585.608856,399.343173 585.608856,418.226937 L585.608856,461.086716 C585.608856,479.97048 571.180812,494.822878 549.750923,494.822878 C531.079336,494.822878 521.531365,482.516605 521.531365,482.516605 Z M710.793358,492.701107 C712.066421,492.701107 713.127306,491.640221 713.127306,490.367159 L713.127306,485.699262 C713.127306,484.426199 712.066421,483.577491 710.793358,483.577491 L680.876384,483.577491 L680.876384,346.723247 C680.876384,345.450185 679.391144,344.177122 678.118081,344.177122 L649.049815,344.177122 C647.776753,344.177122 646.715867,345.02583 646.715867,346.298893 L646.715867,350.96679 C646.715867,352.239852 647.776753,353.300738 649.049815,353.300738 L670.267528,353.300738 L670.267528,483.577491 L642.472325,483.577491 C641.199262,483.577491 640.138376,484.426199 640.138376,485.699262 L640.138376,490.367159 C640.138376,491.640221 641.199262,492.701107 642.472325,492.701107 L710.793358,492.701107 Z M775.083026,418.651292 L775.083026,433.50369 L828.763838,433.50369 L828.763838,418.651292 C828.763838,405.284133 816.881919,393.614391 801.817343,393.614391 C786.752768,393.614391 775.083026,405.284133 775.083026,418.651292 Z M802.02952,494.822878 C779.326568,494.822878 764.898524,479.97048 764.898524,461.935424 L764.898524,417.378229 C764.898524,399.343173 779.326568,384.490775 802.02952,384.490775 C824.308118,384.490775 838.948339,399.343173 838.948339,417.378229 L838.948339,439.020295 C838.948339,440.929889 837.250923,442.627306 835.341328,442.627306 L775.083026,442.627306 L775.083026,460.662362 C775.083026,474.02952 786.752768,485.699262 801.817343,485.699262 C816.245387,485.699262 827.278598,475.090406 828.551661,464.269373 C828.763838,462.99631 829.188192,461.723247 831.097786,461.723247 L835.97786,461.723247 C837.675277,461.723247 838.948339,462.99631 838.736162,464.269373 C836.826568,480.607011 823.247232,494.822878 802.02952,494.822878 Z M73.8376384,631.04059 L73.8376384,702.332103 C73.8376384,703.605166 72.7767528,704.878229 70.8671587,704.878229 L66.199262,704.878229 C64.501845,704.878229 63.4409594,703.605166 63.4409594,702.332103 L63.4409594,693.845018 C63.4409594,693.845018 54.3173432,707 34.3726937,707 C14.6402214,707 0,693.845018 0,675.385609 C0,655.865314 15.2767528,644.195572 35.2214022,642.498155 L63.4409594,640.164207 L63.4409594,630.828413 C63.4409594,616.188192 54.7416974,605.791513 39.6771218,605.791513 C27.3708487,605.791513 19.3081181,614.490775 17.398524,621.49262 C16.9741697,622.765683 16.3376384,624.038745 14.4280443,624.038745 L9.33579336,624.038745 C7.63837638,624.038745 6.15313653,622.765683 6.57749077,621.49262 C10.1845018,607.913284 21.0055351,596.667897 39.6771218,596.667897 C62.1678967,596.667897 73.8376384,611.308118 73.8376384,631.04059 Z M35.0092251,698.088561 C50.0738007,698.088561 63.4409594,687.479705 63.4409594,675.597786 L63.4409594,649.5 L36.4944649,651.409594 C21.8542435,652.47048 10.396679,660.745387 10.396679,675.173432 C10.396679,688.116236 20.5811808,698.088561 35.0092251,698.088561 Z M208.782288,642.073801 C209.206642,639.95203 209.418819,637.193727 209.418819,634.435424 L209.418819,601.335793 C209.418819,600.062731 208.357934,598.789668 206.448339,598.789668 L201.99262,598.789668 C200.295203,598.789668 199.234317,600.062731 199.234317,601.335793 L199.234317,637.830258 L188.201107,695.96679 L185.230627,695.96679 L173.348708,639.103321 C173.136531,637.830258 172.287823,636.557196 170.378229,636.557196 L160.193727,636.557196 C158.49631,636.557196 157.435424,637.830258 157.223247,639.103321 L145.341328,695.96679 L142.370849,695.96679 L131.337638,637.830258 L131.337638,601.335793 C131.337638,600.062731 130.276753,598.789668 128.367159,598.789668 L123.911439,598.789668 C122.214022,598.789668 121.153137,600.062731 121.153137,601.335793 L121.153137,634.435424 C121.153137,637.193727 121.365314,639.95203 121.789668,642.073801 L133.45941,702.332103 C133.671587,703.605166 134.732472,704.878229 136.429889,704.878229 L150.645756,704.878229 C152.555351,704.878229 153.404059,703.605166 153.616236,702.332103 L164.437269,647.378229 L166.134686,647.378229 L176.95572,702.332103 C177.167897,703.605166 178.228782,704.878229 179.926199,704.878229 L194.142066,704.878229 C196.051661,704.878229 196.900369,703.605166 197.112546,702.332103 L208.782288,642.073801 Z M265.857934,630.828413 L265.857934,645.680812 L319.538745,645.680812 L319.538745,630.828413 C319.538745,617.461255 307.656827,605.791513 292.592251,605.791513 C277.527675,605.791513 265.857934,617.461255 265.857934,630.828413 Z M292.804428,707 C270.101476,707 255.673432,692.147601 255.673432,674.112546 L255.673432,629.555351 C255.673432,611.520295 270.101476,596.667897 292.804428,596.667897 C315.083026,596.667897 329.723247,611.520295 329.723247,629.555351 L329.723247,651.197417 C329.723247,653.107011 328.02583,654.804428 326.116236,654.804428 L265.857934,654.804428 L265.857934,672.839483 C265.857934,686.206642 277.527675,697.876384 292.592251,697.876384 C307.020295,697.876384 318.053506,687.267528 319.326568,676.446494 C319.538745,675.173432 319.9631,673.900369 321.872694,673.900369 L326.752768,673.900369 C328.450185,673.900369 329.723247,675.173432 329.51107,676.446494 C327.601476,692.784133 314.02214,707 292.804428,707 Z M395.922509,677.719557 C395.710332,676.446494 394.861624,675.173432 392.95203,675.173432 L388.071956,675.173432 C386.374539,675.173432 385.52583,676.446494 385.52583,677.719557 C386.586716,691.935424 398.256458,707 420.535055,707 C438.570111,707 454.483395,694.269373 454.483395,678.143911 C454.483395,639.527675 399.52952,649.287823 399.52952,622.97786 C399.52952,613.005535 410.138376,605.791513 420.535055,605.791513 C432.629151,605.791513 441.116236,613.642066 442.813653,622.341328 C443.02583,623.614391 443.450185,624.887454 445.359779,624.887454 L450.664207,624.887454 C452.361624,624.887454 453.634686,623.614391 453.422509,622.341328 C452.149446,613.005535 442.177122,596.667897 420.747232,596.667897 C403.773063,596.667897 389.132841,607.48893 389.132841,624.250923 C389.132841,658.835793 443.874539,650.136531 443.874539,677.719557 C443.874539,689.389299 433.690037,697.876384 420.535055,697.876384 C406.743542,697.876384 396.983395,688.116236 395.922509,677.719557 Z M584.123616,629.555351 L584.123616,674.112546 C584.123616,692.147601 569.483395,707 547.204797,707 C524.501845,707 510.073801,692.147601 510.073801,674.112546 L510.073801,629.555351 C510.073801,611.520295 524.501845,596.667897 547.204797,596.667897 C569.483395,596.667897 584.123616,611.520295 584.123616,629.555351 Z M573.939114,672.839483 L573.939114,630.828413 C573.939114,617.461255 562.057196,605.791513 546.99262,605.791513 C531.928044,605.791513 520.258303,617.461255 520.258303,630.828413 L520.258303,672.839483 C520.258303,686.206642 531.928044,697.876384 547.204797,697.876384 C562.057196,697.876384 573.939114,686.206642 573.939114,672.839483 Z M641.411439,601.335793 C641.411439,600.062731 640.350554,598.789668 638.653137,598.789668 L634.833948,598.789668 C632.924354,598.789668 631.863469,600.062731 631.863469,601.335793 L631.863469,702.332103 C631.863469,703.605166 632.924354,704.878229 634.833948,704.878229 L639.289668,704.878229 C640.987085,704.878229 642.04797,703.605166 642.04797,702.332103 L642.04797,622.341328 C642.04797,613.429889 649.47417,606.00369 657.961255,606.00369 C664.326568,606.00369 669.630996,611.732472 669.630996,620.219557 L669.630996,702.332103 C669.630996,703.605166 670.691882,704.878229 672.601476,704.878229 L677.057196,704.878229 C678.754613,704.878229 679.815498,703.605166 679.815498,702.332103 L679.815498,622.97786 C679.815498,612.793358 688.090406,606.00369 695.940959,606.00369 C701.669742,606.00369 706.97417,610.247232 706.97417,620.219557 L706.97417,702.332103 C706.97417,703.605166 708.035055,704.878229 709.944649,704.878229 L714.400369,704.878229 C716.097786,704.878229 717.158672,703.605166 717.158672,702.332103 L717.158672,618.734317 C717.158672,604.942804 709.095941,597.092251 697.426199,597.092251 C683.846863,597.092251 676.845018,607.701107 676.845018,607.701107 C676.845018,607.701107 672.601476,597.092251 659.658672,597.092251 C647.776753,597.092251 641.411439,606.428044 641.411439,606.428044 L641.411439,601.335793 Z M775.083026,630.828413 L775.083026,645.680812 L828.763838,645.680812 L828.763838,630.828413 C828.763838,617.461255 816.881919,605.791513 801.817343,605.791513 C786.752768,605.791513 775.083026,617.461255 775.083026,630.828413 Z M802.02952,707 C779.326568,707 764.898524,692.147601 764.898524,674.112546 L764.898524,629.555351 C764.898524,611.520295 779.326568,596.667897 802.02952,596.667897 C824.308118,596.667897 838.948339,611.520295 838.948339,629.555351 L838.948339,651.197417 C838.948339,653.107011 837.250923,654.804428 835.341328,654.804428 L775.083026,654.804428 L775.083026,672.839483 C775.083026,686.206642 786.752768,697.876384 801.817343,697.876384 C816.245387,697.876384 827.278598,687.267528 828.551661,676.446494 C828.763838,675.173432 829.188192,673.900369 831.097786,673.900369 L835.97786,673.900369 C837.675277,673.900369 838.948339,675.173432 838.736162,676.446494 C836.826568,692.784133 823.247232,707 802.02952,707 Z" id="make-people-awesome" fill="#0F2133"></path>
        </g>
    </g>
</svg>
