<?xml version="1.0" encoding="UTF-8"?>
<svg width="272px" height="52px" viewBox="0 0 272 52" version="1.1" xmlns="http://www.w3.org/2000/svg" xmlns:xlink="http://www.w3.org/1999/xlink">
    <!-- Generator: Sketch 49.3 (51167) - http://www.bohemiancoding.com/sketch -->
    <title>Group 2</title>
    <desc>Created with Sketch.</desc>
    <defs></defs>
    <g id="Page-1" stroke="none" stroke-width="1" fill="none" fill-rule="evenodd">
        <text id="struct" font-family="DecimaMonoPro-Bold, Decima Mono Pro" font-size="60" font-weight="bold" fill="#0F2133">
            <tspan x="60" y="95">struct</tspan>
        </text>
        <g id="Group-2" transform="translate(0.000000, -4.000000)">
            <path d="M78,45.6 C69.84,45.6 66.6,40.08 66.6,37.26 C66.6,36.36 67.32,35.64 68.22,35.64 L71.88,35.64 C73.02,35.64 73.8,36.24 74.16,37.2 C74.4,37.8 75.24,39.42 78.12,39.42 C80.82,39.42 81.72,37.8 81.72,36.54 C81.72,31.68 67.26,32.94 67.26,23.4 C67.26,18 72.36,14.4 78.12,14.4 C85.74,14.4 89.04,19.74 89.04,22.68 C89.04,23.58 88.32,24.3 87.42,24.3 L83.58,24.3 C82.44,24.3 81.72,23.7 81.42,22.74 C81.24,22.14 80.28,20.52 78,20.52 C75.96,20.52 74.58,21.96 74.58,23.34 C74.58,27.48 89.4,25.92 89.4,36.3 C89.4,41.34 84.12,45.6 78,45.6 Z M116.22,45.6 C108.84,45.6 104.7,41.04 104.7,35.04 L104.7,21.24 L100.98,21.24 C100.14,21.24 99.48,20.58 99.48,19.8 L99.48,16.44 C99.48,15.66 100.14,15 100.98,15 L104.7,15 L104.7,8.76 C104.7,7.86 105.42,7.14 106.32,7.14 L110.28,7.14 C111.18,7.14 111.9,7.86 111.9,8.82 L111.9,15 L124.98,15 C125.82,15 126.48,15.66 126.48,16.44 L126.48,19.8 C126.48,20.58 125.82,21.24 124.98,21.24 L111.9,21.24 L111.9,34.86 C111.9,37.5 113.64,39.36 116.34,39.36 C119.52,39.36 120.42,37.02 120.6,36.42 C120.84,35.52 121.5,34.86 122.64,34.86 L126.18,34.86 C127.08,34.86 127.8,35.58 127.8,36.48 C127.8,39.12 125.4,45.6 116.22,45.6 Z M164.4,23.52 C164.4,24.42 163.68,25.14 162.78,25.14 L158.82,25.14 C157.92,25.14 157.38,24.42 157.14,23.52 C156.96,22.62 155.94,20.7 153.78,20.7 C151.02,20.7 148.98,22.86 148.98,25.68 L148.98,38.76 L159.6,38.76 C160.44,38.76 161.1,39.42 161.1,40.2 L161.1,43.56 C161.1,44.34 160.44,45 159.6,45 L137.1,45 C136.26,45 135.6,44.34 135.6,43.56 L135.6,40.2 C135.6,39.42 136.26,38.76 137.1,38.76 L141.66,38.76 L141.66,16.62 C141.66,15.72 142.38,15 143.28,15 L147.06,15 C147.96,15 148.68,15.72 148.68,16.62 L148.68,17.4 C148.68,17.4 150.78,14.46 155.16,14.46 C161.52,14.46 164.4,20.28 164.4,23.52 Z M191.22,43.38 L191.22,42.48 C191.22,42.48 188.46,45.6 184.08,45.6 C178.32,45.6 173.58,41.1 173.58,34.44 L173.58,16.62 C173.58,15.72 174.3,15 175.2,15 L179.34,15 C180.24,15 180.96,15.72 180.96,16.62 L180.96,34.32 C180.96,37.26 182.94,39.3 185.76,39.3 C188.7,39.3 190.92,36.9 190.92,34.62 L190.92,16.62 C190.92,15.72 191.64,15 192.54,15 L196.62,15 C197.52,15 198.24,15.72 198.24,16.62 L198.24,43.38 C198.24,44.28 197.52,45 196.62,45 L192.84,45 C191.94,45 191.22,44.28 191.22,43.38 Z M222.36,45.6 C215.22,45.6 210.24,41.1 210.24,35.04 L210.24,25.14 C210.24,18.96 215.16,14.4 222.3,14.4 C231.12,14.4 234.3,21.06 234.3,24 C234.3,24.9 233.58,25.62 232.68,25.62 L228.84,25.62 C227.7,25.62 226.98,24.96 226.74,24.06 C226.56,23.46 225.48,20.64 222.3,20.64 C219.72,20.64 217.8,22.5 217.8,25.08 L217.8,34.98 C217.8,37.5 219.72,39.36 222.36,39.36 C225.96,39.36 226.74,36.3 226.86,35.7 C227.04,34.8 227.88,34.14 229.02,34.14 L232.86,34.14 C233.76,34.14 234.48,34.86 234.48,35.76 C234.48,38.58 231.78,45.6 222.36,45.6 Z M260.22,45.6 C252.84,45.6 248.7,41.04 248.7,35.04 L248.7,21.24 L244.98,21.24 C244.14,21.24 243.48,20.58 243.48,19.8 L243.48,16.44 C243.48,15.66 244.14,15 244.98,15 L248.7,15 L248.7,8.76 C248.7,7.86 249.42,7.14 250.32,7.14 L254.28,7.14 C255.18,7.14 255.9,7.86 255.9,8.82 L255.9,15 L268.98,15 C269.82,15 270.48,15.66 270.48,16.44 L270.48,19.8 C270.48,20.58 269.82,21.24 268.98,21.24 L255.9,21.24 L255.9,34.86 C255.9,37.5 257.64,39.36 260.34,39.36 C263.52,39.36 264.42,37.02 264.6,36.42 C264.84,35.52 265.5,34.86 266.64,34.86 L270.18,34.86 C271.08,34.86 271.8,35.58 271.8,36.48 C271.8,39.12 269.4,45.6 260.22,45.6 Z" id="struct" fill="#0F2133"></path>
            <polygon id="Combined-Shape" fill="#FF0076" points="23.6808237 40.5405405 20 56 52 35 28.3191763 19.4594595 32 4 0 25"></polygon>
        </g>
    </g>
</svg>